<svg width="316" height="64" viewBox="0 0 316 64" fill="none" xmlns="http://www.w3.org/2000/svg">
<path d="M26.574 1.96015H28.574V-0.0398483H26.574V1.96015ZM26.574 62.1602V64.1602H28.574V62.1602H26.574ZM12.642 62.1602H10.642V64.1602H12.642V62.1602ZM12.642 13.1402H14.642V11.1402H12.642V13.1402ZM0.602 13.1402H-1.398V15.1402H0.602V13.1402ZM0.602 1.96015V-0.0398483H-1.398V1.96015H0.602ZM24.574 1.96015V62.1602H28.574V1.96015H24.574ZM26.574 60.1602H12.642V64.1602H26.574V60.1602ZM14.642 62.1602V13.1402H10.642V62.1602H14.642ZM12.642 11.1402H0.602V15.1402H12.642V11.1402ZM2.602 13.1402V1.96015H-1.398V13.1402H2.602ZM0.602 3.96015H26.574V-0.0398483H0.602V3.96015ZM100.328 49.5182V51.5182H102.328V49.5182H100.328ZM90.5237 49.5182V47.5182H88.5237V49.5182H90.5237ZM90.5237 62.1602V64.1602H92.5237V62.1602H90.5237ZM76.9357 62.1602H74.9357V64.1602H76.9357V62.1602ZM76.9357 49.5182H78.9357V47.5182H76.9357V49.5182ZM44.5137 49.5182H42.5137V51.5182H44.5137V49.5182ZM44.5137 40.1442L42.9085 38.9511L42.5137 39.4823V40.1442H44.5137ZM72.8937 1.96015V-0.0398483H71.8883L71.2885 0.767105L72.8937 1.96015ZM87.5137 1.96015L89.1315 3.13604L91.4399 -0.0398483H87.5137V1.96015ZM61.1977 38.1662L59.5799 36.9903L57.2716 40.1662H61.1977V38.1662ZM77.3657 38.1662V40.1662H79.3657V38.1662H77.3657ZM77.3657 26.9002V24.9002H75.3657V26.9002H77.3657ZM90.5237 26.9002H92.5237V24.9002H90.5237V26.9002ZM90.5237 38.1662H88.5237V40.1662H90.5237V38.1662ZM100.328 38.1662H102.328V36.1662H100.328V38.1662ZM100.328 47.5182H90.5237V51.5182H100.328V47.5182ZM88.5237 49.5182V62.1602H92.5237V49.5182H88.5237ZM90.5237 60.1602H76.9357V64.1602H90.5237V60.1602ZM78.9357 62.1602V49.5182H74.9357V62.1602H78.9357ZM76.9357 47.5182H44.5137V51.5182H76.9357V47.5182ZM46.5137 49.5182V40.1442H42.5137V49.5182H46.5137ZM46.1189 41.3372L74.4989 3.1532L71.2885 0.767105L42.9085 38.9511L46.1189 41.3372ZM72.8937 3.96015H87.5137V-0.0398483H72.8937V3.96015ZM85.8959 0.784266L59.5799 36.9903L62.8155 39.342L89.1315 3.13604L85.8959 0.784266ZM61.1977 40.1662H77.3657V36.1662H61.1977V40.1662ZM79.3657 38.1662V26.9002H75.3657V38.1662H79.3657ZM77.3657 28.9002H90.5237V24.9002H77.3657V28.9002ZM88.5237 26.9002V38.1662H92.5237V26.9002H88.5237ZM90.5237 40.1662H100.328V36.1662H90.5237V40.1662ZM98.3277 38.1662V49.5182H102.328V38.1662H98.3277ZM192.318 1.96015H194.318V-0.0398483H192.318V1.96015ZM192.318 10.9902L194.151 11.791L194.318 11.4081V10.9902H192.318ZM169.958 62.1602V64.1602H171.267L171.791 62.961L169.958 62.1602ZM154.822 62.1602L152.993 61.3518L151.752 64.1602H154.822V62.1602ZM176.408 13.3122L178.238 14.1205L179.479 11.3122H176.408V13.3122ZM156.456 13.3122V11.3122H154.456V13.3122H156.456ZM156.456 23.1162V25.1162H158.456V23.1162H156.456ZM144.072 23.1162H142.072V25.1162H144.072V23.1162ZM144.072 1.96015V-0.0398483H142.072V1.96015H144.072ZM190.318 1.96015V10.9902H194.318V1.96015H190.318ZM190.486 10.1893L168.126 61.3593L171.791 62.961L194.151 11.791L190.486 10.1893ZM169.958 60.1602H154.822V64.1602H169.958V60.1602ZM156.652 62.9685L178.238 14.1205L174.579 12.5038L152.993 61.3518L156.652 62.9685ZM176.408 11.3122H156.456V15.3122H176.408V11.3122ZM154.456 13.3122V23.1162H158.456V13.3122H154.456ZM156.456 21.1162H144.072V25.1162H156.456V21.1162ZM146.072 23.1162V1.96015H142.072V23.1162H146.072ZM144.072 3.96015H192.318V-0.0398483H144.072V3.96015ZM247.626 8.66815L246.156 10.0241L246.164 10.0322L247.626 8.66815ZM250.894 48.3142L249.127 47.3784L249.122 47.3865L249.118 47.3947L250.894 48.3142ZM240.144 59.4082L241.099 61.1656L240.144 59.4082ZM214.86 62.1602L214.366 64.0982L214.384 64.1028L214.402 64.107L214.86 62.1602ZM207.378 59.0642L205.592 58.1637L204.779 59.7769L206.301 60.7495L207.378 59.0642ZM212.538 48.8302L213.67 47.1811L211.783 45.8861L210.752 47.9297L212.538 48.8302ZM235.93 47.3682L237.344 48.7824L237.351 48.7756L237.358 48.7688L235.93 47.3682ZM240.746 34.2962L242.745 34.3769L242.951 29.2627L239.332 32.8819L240.746 34.2962ZM215.29 37.3922L216.172 35.5968L215.29 37.3922ZM207.808 30.8562L206.124 31.9343L206.129 31.942L206.134 31.9497L207.808 30.8562ZM208.066 10.3882L206.397 9.28603L208.066 10.3882ZM216.236 3.42215L217.082 5.23452L217.089 5.23149L217.095 5.22842L216.236 3.42215ZM236.274 26.8142L237.594 28.3165L237.597 28.3138L236.274 26.8142ZM236.36 13.8282L235.017 15.3101L235.029 15.3204L235.04 15.3305L236.36 13.8282ZM221.396 13.7422L220.102 12.2171L220.091 12.227L220.079 12.237L221.396 13.7422ZM221.396 26.9002L220.053 28.3821L220.077 28.4041L220.102 28.4252L221.396 26.9002ZM227.846 2.92816C235.837 2.92816 241.851 5.35616 246.156 10.024L249.096 7.31227C243.884 1.66015 236.711 -1.07184 227.846 -1.07184V2.92816ZM246.164 10.0322C250.464 14.6434 252.764 21.45 252.764 30.7702H256.764C256.764 20.8263 254.306 12.8982 249.089 7.3041L246.164 10.0322ZM252.764 30.7702C252.764 37.3428 251.522 42.8539 249.127 47.3784L252.662 49.2499C255.427 44.0277 256.764 37.8428 256.764 30.7702H252.764ZM249.118 47.3947C246.772 51.9273 243.468 55.3266 239.19 57.6507L241.099 61.1656C246.108 58.4444 249.971 54.4477 252.67 49.2336L249.118 47.3947ZM239.19 57.6507C234.88 59.9917 229.857 61.1922 224.062 61.1922V65.1922C230.423 65.1922 236.121 63.8699 241.099 61.1656L239.19 57.6507ZM224.062 61.1922C220.995 61.1922 218.082 60.8637 215.318 60.2133L214.402 64.107C217.486 64.8326 220.708 65.1922 224.062 65.1922V61.1922ZM215.354 60.2221C212.591 59.5177 210.303 58.5597 208.455 57.3788L206.301 60.7495C208.581 62.206 211.282 63.312 214.366 64.0982L215.354 60.2221ZM209.164 59.9646L214.324 49.7306L210.752 47.9297L205.592 58.1637L209.164 59.9646ZM211.407 50.4792C214.749 52.7731 218.931 53.8402 223.804 53.8402V49.8402C219.504 49.8402 216.175 48.9006 213.67 47.1811L211.407 50.4792ZM223.804 53.8402C229.318 53.8402 233.912 52.2153 237.344 48.7824L234.516 45.9539C231.986 48.4837 228.496 49.8402 223.804 49.8402V53.8402ZM237.358 48.7688C240.789 45.2718 242.502 40.3798 242.745 34.3769L238.748 34.2154C238.532 39.5645 237.034 43.3872 234.503 45.9675L237.358 48.7688ZM239.332 32.8819C236.182 36.0315 231.754 37.7142 225.782 37.7142V41.7142C232.539 41.7142 238.086 39.7848 242.16 35.7104L239.332 32.8819ZM225.782 37.7142C222.217 37.7142 219.026 36.9979 216.172 35.5968L214.409 39.1875C217.861 40.8824 221.664 41.7142 225.782 41.7142V37.7142ZM216.172 35.5968C213.325 34.1995 211.112 32.2566 209.483 29.7626L206.134 31.9497C208.174 35.0744 210.949 37.4889 214.409 39.1875L216.172 35.5968ZM209.493 29.778C207.884 27.2636 207.056 24.3484 207.056 20.9662H203.056C203.056 25.0373 204.064 28.7154 206.124 31.9343L209.493 29.778ZM207.056 20.9662C207.056 17.3031 207.966 14.1689 209.735 11.4903L206.397 9.28603C204.153 12.6848 203.056 16.6026 203.056 20.9662H207.056ZM209.735 11.4903C211.529 8.77327 213.962 6.69061 217.082 5.23452L215.39 1.60979C211.631 3.36436 208.616 5.92571 206.397 9.28603L209.735 11.4903ZM217.095 5.22842C220.299 3.70511 223.872 2.92816 227.846 2.92816V-1.07184C223.335 -1.07184 219.168 -0.186136 215.378 1.61588L217.095 5.22842ZM228.878 31.3082C232.298 31.3082 235.266 30.3631 237.594 28.3165L234.954 25.3118C233.499 26.5905 231.536 27.3082 228.878 27.3082V31.3082ZM237.597 28.3138C239.984 26.2079 241.198 23.4798 241.198 20.2782H237.198C237.198 22.3512 236.463 23.9804 234.951 25.3145L237.597 28.3138ZM241.198 20.2782C241.198 17.0964 240.027 14.3881 237.68 12.3258L235.04 15.3305C236.477 16.5936 237.198 18.1852 237.198 20.2782H241.198ZM237.703 12.3462C235.396 10.2552 232.308 9.33415 228.706 9.33415V13.3342C231.64 13.3342 233.655 14.0758 235.017 15.3101L237.703 12.3462ZM228.706 9.33415C225.351 9.33415 222.425 10.2463 220.102 12.2171L222.69 15.2672C224.151 14.0274 226.099 13.3342 228.706 13.3342V9.33415ZM220.079 12.237C217.752 14.2735 216.644 17.0323 216.644 20.2782H220.644C220.644 18.02 221.371 16.4215 222.713 15.2473L220.079 12.237ZM216.644 20.2782C216.644 23.5247 217.751 26.2957 220.053 28.3821L222.739 25.4182C221.372 24.1793 220.644 22.5356 220.644 20.2782H216.644ZM220.102 28.4252C222.438 30.4074 225.429 31.3082 228.878 31.3082V27.3082C226.135 27.3082 224.138 26.6036 222.69 25.3751L220.102 28.4252ZM309.006 29.6522L307.717 31.1814L307.728 31.1904L309.006 29.6522ZM312.36 53.3022L314.063 54.3503L314.068 54.3431L314.072 54.3359L312.36 53.3022ZM303.932 60.5262L304.793 62.3314L304.805 62.3258L303.932 60.5262ZM277.53 61.5582L276.988 63.4832L277.004 63.4877L277.02 63.492L277.53 61.5582ZM267.124 56.7422L265.347 55.8249L264.556 57.3575L265.955 58.3652L267.124 56.7422ZM272.628 46.0782L273.828 44.4782L271.936 43.0589L270.851 45.1609L272.628 46.0782ZM280.54 50.1202L279.919 52.0211L279.935 52.0266L279.952 52.0317L280.54 50.1202ZM297.998 49.4322L299.129 51.0816L297.998 49.4322ZM297.826 37.8222L296.749 39.5075L296.76 39.5142L296.77 39.5207L297.826 37.8222ZM271.596 35.8442L269.604 35.6622L269.405 37.8442H271.596V35.8442ZM274.692 1.96015V-0.0398483H272.866L272.7 1.77817L274.692 1.96015ZM311.414 1.96015H313.414V-0.0398483H311.414V1.96015ZM311.414 13.1402V15.1402H313.414V13.1402H311.414ZM286.302 13.1402V11.1402H284.461L284.309 12.9753L286.302 13.1402ZM285.356 24.5782L283.363 24.4133L283.184 26.5782H285.356V24.5782ZM290.258 26.5782C298.544 26.5782 304.229 28.2412 307.717 31.1814L310.295 28.1229C305.757 24.2978 298.943 22.5782 290.258 22.5782V26.5782ZM307.728 31.1904C311.305 34.1627 313.112 38.1096 313.112 43.2402H317.112C317.112 37.0188 314.849 31.9069 310.284 28.1139L307.728 31.1904ZM313.112 43.2402C313.112 46.558 312.288 49.5525 310.648 52.2684L314.072 54.3359C316.102 50.9744 317.112 47.261 317.112 43.2402H313.112ZM310.657 52.254C309.059 54.8506 306.57 57.0243 303.06 58.7265L304.805 62.3258C308.862 60.3587 311.992 57.7164 314.063 54.3503L310.657 52.254ZM303.071 58.7209C299.687 60.3348 295.387 61.1922 290.086 61.1922V65.1922C295.793 65.1922 300.723 64.2722 304.793 62.3314L303.071 58.7209ZM290.086 61.1922C286.017 61.1922 282.003 60.67 278.04 59.6244L277.02 63.492C281.313 64.625 285.67 65.1922 290.086 65.1922V61.1922ZM278.072 59.6331C274.183 58.5376 270.937 57.0227 268.293 55.1191L265.955 58.3652C269.045 60.5896 272.735 62.2854 276.988 63.4832L278.072 59.6331ZM268.901 57.6594L274.405 46.9954L270.851 45.1609L265.347 55.8249L268.901 57.6594ZM271.428 47.6782C273.912 49.5412 276.749 50.9849 279.919 52.0211L281.162 48.2192C278.369 47.3061 275.931 46.0551 273.828 44.4782L271.428 47.6782ZM279.952 52.0317C283.126 53.0083 286.392 53.4962 289.742 53.4962V49.4962C286.786 49.4962 283.917 49.0667 281.128 48.2086L279.952 52.0317ZM289.742 53.4962C293.474 53.4962 296.673 52.7658 299.129 51.0816L296.867 47.7827C295.31 48.8505 293.005 49.4962 289.742 49.4962V53.4962ZM299.129 51.0816C301.688 49.3268 303.008 46.7845 303.008 43.6702H299.008C299.008 45.4865 298.321 46.7855 296.867 47.7827L299.129 51.0816ZM303.008 43.6702C303.008 40.4265 301.614 37.8216 298.882 36.1236L296.77 39.5207C298.281 40.46 299.008 41.7538 299.008 43.6702H303.008ZM298.903 36.1368C296.318 34.4853 292.193 33.8442 286.99 33.8442V37.8442C292.107 37.8442 295.206 38.5217 296.749 39.5075L298.903 36.1368ZM286.99 33.8442H271.596V37.8442H286.99V33.8442ZM273.588 36.0261L276.684 2.14214L272.7 1.77817L269.604 35.6622L273.588 36.0261ZM274.692 3.96015H311.414V-0.0398483H274.692V3.96015ZM309.414 1.96015V13.1402H313.414V1.96015H309.414ZM311.414 11.1402H286.302V15.1402H311.414V11.1402ZM284.309 12.9753L283.363 24.4133L287.349 24.743L288.295 13.305L284.309 12.9753ZM285.356 26.5782H290.258V22.5782H285.356V26.5782Z" fill="url(#paint0_linear_62_100)"/>
<defs>
<linearGradient id="paint0_linear_62_100" x1="0" y1="31.6601" x2="318" y2="31.6602" gradientUnits="userSpaceOnUse">
<stop stop-color="#F7941D"/>
<stop offset="1" stop-color="#27AAE1"/>
</linearGradient>
</defs>
</svg>
