<svg width="84" height="59" viewBox="0 0 84 59" fill="none" xmlns="http://www.w3.org/2000/svg">
<path d="M13.6694 58.6436C6.13054 58.6436 0 52.513 0 44.9741C0 37.4352 6.13054 31.3047 13.6694 31.3047C21.2083 31.3047 27.3389 37.4352 27.3389 44.9741C27.3389 52.5544 21.2083 58.6436 13.6694 58.6436Z" fill="white"/>
<path d="M13.6694 58.6436C6.13054 58.6436 0 52.513 0 44.9741C0 37.4352 6.13054 31.3047 13.6694 31.3047C21.2083 31.3047 27.3389 37.4352 27.3389 44.9741C27.3389 52.5544 21.2083 58.6436 13.6694 58.6436Z" fill="white"/>
<path d="M45.9791 1.52264L31.1498 25.7548C30.7356 26.459 31.1913 27.3289 31.9783 27.3289H46.8076H61.6368C62.4238 27.3289 62.8795 26.4176 62.4653 25.7548L47.636 1.52264C47.2218 0.901306 46.3519 0.901306 45.9791 1.52264Z" fill="white"/>
<path d="M27.0487 5.62311L21.7052 0.279602C21.3324 -0.0932007 20.6697 -0.0932007 20.2969 0.279602L14.4149 6.1616C14.0421 6.5344 13.3793 6.5344 13.0065 6.1616L7.12449 0.279602C6.75168 -0.0932007 6.08893 -0.0932007 5.71612 0.279602L0.37262 5.62311C-0.000183128 5.99591 -0.000183128 6.65867 0.37262 7.03148L6.25461 12.9135C6.62741 13.2863 6.62741 13.949 6.25461 14.3218L0.37262 20.2038C-0.000183128 20.5766 -0.000183128 21.2394 0.37262 21.6122L5.71612 26.9557C6.08893 27.3285 6.75168 27.3285 7.12449 26.9557L13.0065 21.0737C13.3793 20.7009 14.0421 20.7009 14.4149 21.0737L20.2969 26.9557C20.6697 27.3285 21.3324 27.3285 21.7052 26.9557L27.0487 21.6122C27.4215 21.2394 27.4215 20.5766 27.0487 20.2038L21.1667 14.3218C20.7939 13.949 20.7939 13.2863 21.1667 12.9135L27.0487 7.03148C27.463 6.65867 27.463 6.03733 27.0487 5.62311Z" fill="white"/>
<path d="M33.7592 40.7501V42.4898H36.783V43.6911H33.7592V46.0522H32.2679V39.5488H37.1558V40.7501H33.7592Z" fill="white"/>
<path d="M39.1858 45.3894C38.6887 44.8923 38.3988 44.1467 38.3988 43.194V39.5488H39.89V43.1112C39.89 44.271 40.3871 44.8509 41.3398 44.8509C41.7954 44.8509 42.1682 44.7267 42.4168 44.4367C42.6653 44.1467 42.7896 43.7325 42.7896 43.1112V39.5488H44.2808V43.194C44.2808 44.1467 44.0322 44.8923 43.4938 45.3894C42.9967 45.8865 42.2511 46.1764 41.3398 46.1764C40.4285 46.1764 39.6829 45.8865 39.1858 45.3894Z" fill="white"/>
<path d="M47.263 40.7915H45.1918V39.5488H50.8253V40.7915H48.7542V46.0522H47.263V40.7915Z" fill="white"/>
<path d="M52.5235 45.3894C52.0265 44.8923 51.7365 44.1467 51.7365 43.194V39.5488H53.2277V43.1112C53.2277 44.271 53.7248 44.8509 54.6775 44.8509C55.1332 44.8509 55.506 44.7267 55.7545 44.4367C56.003 44.1467 56.1273 43.7325 56.1273 43.1112V39.5488H57.6185V43.194C57.6185 44.1467 57.37 44.8923 56.8315 45.3894C56.3344 45.8865 55.5888 46.1764 54.6775 46.1764C53.7662 46.1764 53.062 45.8865 52.5235 45.3894Z" fill="white"/>
<path d="M63.5007 46.0518L62.258 44.2292H62.1752H60.8497V46.0518H59.3585V39.5898H62.1752C62.7551 39.5898 63.2522 39.6727 63.6664 39.8798C64.0806 40.0869 64.412 40.3355 64.6605 40.7083C64.8677 41.0396 64.9919 41.4953 64.9919 41.9509C64.9919 42.448 64.8677 42.8622 64.6605 43.1936C64.412 43.525 64.0806 43.8149 63.6664 43.9806L65.1162 46.0518H63.5007ZM63.1279 41.0811C62.8794 40.8739 62.548 40.7911 62.0923 40.7911H60.8497V43.0693H62.0923C62.548 43.0693 62.8794 42.9865 63.1279 42.7794C63.3764 42.5723 63.4593 42.3237 63.4593 41.9509C63.5007 41.5367 63.3764 41.2882 63.1279 41.0811Z" fill="white"/>
<path d="M71.4953 44.8509V46.0522H66.4832V39.5488H71.371V40.7501H67.9744V42.1585H70.9568V43.3597H67.9744V44.8509H71.4953Z" fill="white"/>
<path d="M36.5346 56.6551H33.5107L32.9308 58.0635H31.3982L34.2978 51.6016H35.789L38.6886 58.0635H37.1145L36.5346 56.6551ZM36.0789 55.5367L35.0434 53.0514L34.0078 55.5367H36.0789Z" fill="white"/>
<path d="M40.8426 57.7318C40.3041 57.4418 39.8899 57.0276 39.5999 56.5305C39.31 56.0334 39.1443 55.4535 39.1443 54.7908C39.1443 54.1694 39.31 53.5895 39.5999 53.051C39.8899 52.554 40.3455 52.1397 40.8426 51.8498C41.3811 51.5598 41.961 51.4355 42.6238 51.4355C43.2037 51.4355 43.7008 51.5184 44.1564 51.7255C44.6121 51.9326 44.9849 52.2226 45.3162 52.5954L44.3635 53.4652C43.9079 52.9682 43.3694 52.7196 42.748 52.7196C42.3338 52.7196 42.0024 52.8025 41.6711 52.9682C41.3397 53.1339 41.0911 53.3824 40.9255 53.7138C40.7598 54.0452 40.6769 54.3765 40.6769 54.7908C40.6769 55.205 40.7598 55.5364 40.9255 55.8678C41.0911 56.1991 41.3397 56.4477 41.6711 56.6134C42.0024 56.7791 42.3338 56.8619 42.748 56.8619C43.4108 56.8619 43.9493 56.6134 44.3635 56.0749L45.3162 56.9447C45.0263 57.3175 44.6121 57.6075 44.1564 57.8146C43.7008 58.0217 43.2037 58.1046 42.6238 58.1046C42.0024 58.146 41.3811 58.0217 40.8426 57.7318Z" fill="white"/>
<path d="M50.7425 56.6551H47.7186L47.1387 58.0635H45.6061L48.5057 51.6016H49.9969L52.8964 58.0635H51.3224L50.7425 56.6551ZM50.2868 55.5367L49.2513 53.0514L48.2157 55.5367H50.2868Z" fill="white"/>
<path d="M53.8493 51.5605H56.7903C57.4944 51.5605 58.1158 51.6848 58.6543 51.9748C59.1928 52.2233 59.607 52.6375 59.897 53.0932C60.1869 53.5903 60.3526 54.1288 60.3526 54.7915C60.3526 55.4543 60.1869 55.9928 59.897 56.4898C59.607 56.9869 59.1928 57.3597 58.6543 57.6082C58.1158 57.8568 57.4944 58.0225 56.7903 58.0225H53.8493V51.5605ZM56.7074 56.8212C57.3702 56.8212 57.8672 56.6555 58.2401 56.2827C58.6129 55.9099 58.82 55.4129 58.82 54.8329C58.82 54.2116 58.6129 53.7145 58.2401 53.3831C57.8672 53.0103 57.3288 52.8446 56.7074 52.8446H55.3405V56.8626H56.7074V56.8212Z" fill="white"/>
<path d="M66.7729 56.8626V58.0639H61.7608V51.5605H66.6487V52.7618H63.252V54.1702H66.2759V55.33H63.252V56.8626H66.7729Z" fill="white"/>
<path d="M74.1463 58.0639V54.1702L72.2408 57.3597H71.5781L69.6726 54.253V58.0639H68.2643V51.5605H69.5069L71.9094 55.5785L74.3119 51.5605H75.5546V58.0639H74.1463Z" fill="white"/>
<path d="M80.4838 55.7442V58.0639H78.9926V55.7442L76.4658 51.5605H78.0813L79.8211 54.4601L81.5194 51.5605H83.0106L80.4838 55.7442Z" fill="white"/>
</svg>
