<svg width="95" height="96" viewBox="0 0 95 96" fill="none" xmlns="http://www.w3.org/2000/svg">
<path d="M19.581 84.1619C9.33405 84.1619 1 75.8279 1 65.581C1 55.3341 9.33405 47 19.581 47C29.8279 47 38.1619 55.3341 38.1619 65.581C38.1619 75.8852 29.8299 84.1619 19.581 84.1619Z" stroke="#00093C" stroke-width="2"/>
<path d="M71.319 1.20514L71.3191 1.20516L71.3236 1.19765C71.402 1.06692 71.5138 1.01562 71.6306 1.01562C71.7478 1.01562 71.89 1.06998 71.999 1.22551L93.229 35.9169L93.2289 35.9169L93.2339 35.9249C93.3253 36.0712 93.3296 36.2563 93.2454 36.4193C93.1645 36.5758 93.038 36.6496 92.8952 36.6496H71.6528H50.4104C50.2468 36.6496 50.1278 36.5702 50.057 36.4354C49.9844 36.2972 49.9693 36.104 50.0822 35.9078L71.319 1.20514Z" stroke="#00093C" stroke-width="2"/>
<path d="M37.9441 9.34466L37.9246 9.36226L37.906 9.38085L29.4802 17.8066C28.5557 18.7312 28.5557 20.3137 29.4802 21.2382L37.906 29.664C38.0495 29.8075 38.0495 30.1237 37.906 30.2672L30.2516 37.9216C30.1081 38.0651 29.7919 38.0651 29.6484 37.9216L21.2226 29.4959C20.2981 28.5713 18.7155 28.5713 17.791 29.4959L9.36522 37.9216C9.22172 38.0651 8.90551 38.0651 8.762 37.9216L1.10763 30.2672C0.964124 30.1237 0.964124 29.8075 1.10763 29.664L0.40052 28.9569L1.10763 29.664L9.53337 21.2382C10.4579 20.3137 10.4579 18.7312 9.53337 17.8066L1.10763 9.38085C0.964124 9.23735 0.964124 8.92113 1.10763 8.77763L8.762 1.12325C8.90551 0.979749 9.22172 0.979749 9.36522 1.12325L17.791 9.549C18.7155 10.4736 20.2981 10.4736 21.2226 9.549L29.6484 1.12325C29.7919 0.979749 30.1081 0.979749 30.2516 1.12325L37.906 8.77763C38.0231 8.89472 38.0581 9.0143 38.0581 9.10149C38.0581 9.18557 38.027 9.27004 37.9441 9.34466Z" stroke="#00093C" stroke-width="2"/>
<path d="M68.1957 68.4741L64.4488 61.6733M64.4488 61.6733C64.4488 61.6733 62.1651 57.5284 60.7019 54.8725C60.2335 54.0224 59.124 53.9126 58.0747 54.1037C57.3327 54.2388 56.8948 54.48 56.3842 55.035C55.6621 55.8199 55.1625 56.8162 55.6305 57.6666C55.8601 58.0837 63.5927 72.1183 64.9978 74.6686C66.2911 77.0161 58.8439 72.8678 58.4298 72.7465C57.1167 72.3618 54.5806 73.7591 55.9857 76.3094C56.2724 76.8298 71.0121 87.1992 75.045 90.0304C75.6694 90.4688 76.479 90.5059 77.1472 90.1378L89.9803 83.0674C90.7472 82.6449 91.1497 81.774 90.9602 80.9192C90.4486 78.6118 89.3648 74.0117 88.1853 70.7585C86.635 66.4831 83.8785 60.9418 83.4097 60.0919C82.0896 57.6986 76.4649 59.4856 76.4649 59.4856M64.4488 61.6733C64.4488 61.6733 66.3215 59.8674 67.8297 59.8106C68.8961 59.7705 70.4569 60.5795 70.4569 60.5795M70.4569 60.5795L73.267 65.6801M70.4569 60.5795C70.4569 60.5795 70.7426 57.0975 75.5286 57.7851C75.704 57.8103 76.4649 59.4856 76.4649 59.4856M79.2751 64.5862L76.4649 59.4856" stroke="#00093C" stroke-width="2"/>
</svg>
