<svg width="41" height="57" viewBox="0 0 41 57" fill="none" xmlns="http://www.w3.org/2000/svg">
<path d="M3.34283 56.0861H25.6853C26.1345 56.0861 26.4984 55.7222 26.4984 55.273C26.4984 54.8239 26.1345 54.4599 25.6853 54.4599H9.06083V47.0099C9.06083 46.5607 8.69677 46.1968 8.24772 46.1968C7.79867 46.1968 7.43461 46.5607 7.43461 47.0099V54.46H3.34261C2.06777 54.46 1.4691 53.9132 1.65362 52.5403C3.87861 41.6681 3.88338 40.7909 4.24722 39.9C4.31064 39.8112 4.66126 38.5565 6.38028 37.8269C6.55797 37.754 6.44717 37.8028 7.05841 37.6165C7.09614 37.6057 6.90977 37.669 9.82992 36.6551L11.7776 40.2506C11.9915 40.6454 12.4848 40.7923 12.8798 40.5782C13.2747 40.3643 13.4214 39.8708 13.2075 39.4759L11.3865 36.1143L12.6318 35.6818C13.2321 36.79 18.5471 46.6012 19.1248 47.6675C19.4814 48.328 20.3893 48.361 20.8075 47.7842C20.8833 47.6798 20.4504 48.4569 27.3625 35.6781L28.6075 36.1105L22.0251 48.2865C21.1574 49.8915 18.8504 49.8917 17.9816 48.2882L15.0151 42.812C14.801 42.4171 14.3078 42.2701 13.9128 42.4843C13.518 42.6983 13.3713 43.1917 13.5852 43.5866L16.5518 49.0629C18.0357 51.8016 21.9748 51.7991 23.4557 49.0599L30.1638 36.6512C33.0775 37.6628 32.9066 37.605 32.9443 37.6159C33.5175 37.7905 33.4538 37.7569 33.6226 37.826C34.2443 38.0908 34.6154 38.3965 34.6046 38.3884C35.2422 38.9026 35.6818 39.4968 35.9167 40.3716C35.9552 40.5103 38.3691 52.4784 38.3789 52.8823C38.4031 53.9031 37.9623 54.46 36.6626 54.46H32.5704V47.0099C32.5704 46.5607 32.2065 46.1968 31.7573 46.1968C31.3081 46.1968 30.9442 46.5607 30.9442 47.0099V54.46H29.4796C29.0305 54.46 28.6665 54.824 28.6665 55.2731C28.6665 55.7223 29.0305 56.0862 29.4796 56.0862H36.6624C38.5887 56.0862 39.7987 55.1077 39.9822 53.4023C40.0265 52.9954 40.0005 52.4958 39.9509 52.2464C37.4779 39.8285 37.5848 40.3572 37.5727 40.3062C37.2484 38.7366 36.3366 37.4333 34.8585 36.6168C34.1671 36.234 33.7685 36.1744 33.4199 36.0606L27.3443 33.9503L25.3194 32.5615V30.9862C28.2804 29.2272 30.1656 26.1978 30.5102 22.9195C32.9846 23.0342 34.7091 20.6693 33.6717 18.5988V11.9704C33.6717 7.17699 31.0647 5.50936 30.2682 5.11191C26.3709 0.459627 19.0937 -0.733582 13.5769 2.09723L13.5663 2.10254C13.4717 2.15816 12.3346 2.68418 10.9347 3.85484C10.595 4.14865 10.5578 4.6621 10.8515 5.00176C11.1457 5.34186 11.6593 5.37818 11.9984 5.08492C17.4014 0.548202 25.4208 1.71398 29.1281 6.28528C29.2194 6.39771 29.3305 6.48064 29.4662 6.53138C29.5716 6.57366 32.0456 7.61488 32.0456 11.9705V17.1022C31.5945 16.9112 31.0999 16.8133 30.5728 16.828V14.1685C30.5728 13.4939 30.0645 12.9363 29.3906 12.8712C28.0243 12.7393 27.2585 11.849 26.8567 11.1256C26.3539 10.22 25.1536 10.003 24.3665 10.6756C20.741 13.7747 16.5666 13.9321 13.7031 13.5191C11.5402 13.2069 9.52842 14.6801 9.17835 16.8291C8.65189 16.8064 8.13171 16.8996 7.6535 17.1021C7.65664 14.3027 7.33368 11.257 9.62317 7.76677C9.86884 7.39078 9.76314 6.88698 9.38715 6.64131C9.01128 6.39554 8.50737 6.50103 8.2617 6.87722C5.14587 11.6516 6.2607 15.9296 6.02717 18.5989C4.99029 20.6686 6.71257 23.0345 9.18854 22.9195C9.59271 26.7805 11.9711 29.0016 12.0276 29.0983L12.0277 29.0984C12.4499 29.5031 13.208 30.3485 14.6858 31.163V32.5614L12.6612 33.9501C4.73726 36.7026 5.54147 36.3686 4.89771 36.7619C3.68097 37.5114 2.83762 38.6576 2.48614 40.069C2.41686 40.3479 2.53189 39.8208 0.0542908 52.2463C0.00442008 52.4973 -0.0218162 52.9866 0.022959 53.4015C0.206396 55.1076 1.41652 56.0861 3.34283 56.0861ZM21.408 32.3739C21.8653 32.3075 22.3575 32.1985 22.6455 32.1172C22.7139 32.095 23.1065 32.0011 23.6931 31.7754V32.6766L20.0025 36.7833L16.3118 32.6765V31.8879C18.009 32.4774 19.7691 32.6129 21.408 32.3739ZM23.4394 39.5151C23.2281 39.3599 21.4617 38.0625 21.2072 37.8755L24.6323 34.0641L25.91 34.9452C25.0895 36.4628 23.9719 38.53 23.4394 39.5151ZM22.1435 41.9122L21.9425 41.2941L22.2508 40.6594L22.6587 40.9591L22.1435 41.9122ZM17.3419 40.9625L17.7543 40.6597L18.0625 41.2944L17.8596 41.9183L17.3419 40.9625ZM18.7979 37.8755C18.6001 38.0207 16.7599 39.3723 16.5656 39.5151L14.0952 34.9452L15.3728 34.0641L18.7979 37.8755ZM19.0867 39.681L20.0025 39.0084L20.9182 39.681L20.5589 40.4208H19.4461L19.0867 39.681ZM20.0022 45.8733L18.9283 43.8908L19.5278 42.047H20.4775L21.076 43.8875C20.7354 44.5167 20.4194 45.1012 20.0022 45.8733ZM32.3493 19.8746C32.3493 20.7208 31.501 21.3437 30.5724 21.2946V18.4546C31.51 18.405 32.3493 19.0367 32.3493 19.8746ZM29.2341 14.4897C29.2336 14.4897 29.2331 14.4897 29.2327 14.4895C29.2331 14.4897 29.2335 14.4897 29.2341 14.4897ZM13.4705 15.1284C16.6666 15.5897 21.3347 15.4062 25.4226 11.9116L25.4347 11.9147C26.22 13.329 27.4592 14.2218 28.9462 14.4533V17.3327L28.0184 17.8803C27.6364 17.3298 27.0006 16.9679 26.2814 16.9679H22.5605C21.6829 16.9679 20.929 17.5057 20.6097 18.2689H19.0888C18.7696 17.5057 18.0155 16.9679 17.1379 16.9679H13.417C12.6977 16.9679 12.062 17.3298 11.68 17.8803L10.7564 17.3351C10.8364 15.9451 12.0929 14.9293 13.4705 15.1284ZM22.0727 19.082C22.0727 18.8176 22.2962 18.5941 22.5606 18.5941H26.2815C26.5459 18.5941 26.7694 18.8176 26.7694 19.082V20.7013C26.7694 21.4066 26.1955 21.9804 25.4902 21.9804H23.3517C22.6465 21.9804 22.0726 21.4066 22.0726 20.7013V19.082H22.0727ZM17.6257 19.082V20.7013C17.6257 21.4066 17.052 21.9804 16.3466 21.9804H14.2081C13.5028 21.9804 12.9291 21.4066 12.9291 20.7013V19.082C12.9291 18.8176 13.1525 18.5941 13.4169 18.5941H17.1378C17.4022 18.5941 17.6257 18.8176 17.6257 19.082ZM7.34907 19.8746C7.34907 19.0284 8.19741 18.4055 9.12598 18.4546V21.2946C8.18852 21.3442 7.34907 20.7124 7.34907 19.8746ZM12.945 27.6867C10.3134 24.6195 10.8207 21.6412 10.7522 19.2212L11.3031 19.5463V20.7014C11.3031 22.3033 12.6063 23.6067 14.2082 23.6067H16.3467C17.9486 23.6067 19.2519 22.3034 19.2519 20.7014V19.8951H20.4467V20.7014C20.4467 22.3033 21.75 23.6067 23.3519 23.6067H25.4904C27.0923 23.6067 28.3957 22.3034 28.3957 20.7014V19.5463L28.9465 19.2212V21.7636C28.9465 26.5998 25.1189 30.8017 19.8495 30.8597C19.8385 30.8596 19.729 30.8588 19.7399 30.8589C18.3343 30.8447 17.2541 30.4845 17.3634 30.5152C15.7679 30.0725 14.2463 29.1589 12.945 27.6867Z" fill="#00093C"/>
</svg>
