<svg width="57" height="47" viewBox="0 0 57 47" fill="none" xmlns="http://www.w3.org/2000/svg">
<path d="M53.6174 3.49261H51.2617V1.25545C51.2617 0.796169 50.8914 0.425781 50.4321 0.425781H45.4096C44.9503 0.425781 44.5799 0.796169 44.5799 1.25545V3.49261H17.0378V1.25545C17.0378 0.796169 16.6674 0.425781 16.2081 0.425781H11.1856C10.7263 0.425781 10.3559 0.796169 10.3559 1.25545V3.49261H8.41508C6.38535 3.49261 4.72601 5.15195 4.72601 7.18168V27.4642C4.72601 27.9235 5.0964 28.2939 5.55568 28.2939C6.01496 28.2939 6.38535 27.9235 6.38535 27.4642V7.18168C6.38535 6.07052 7.2891 5.15195 8.41508 5.15195H53.6322C54.5212 5.15195 55.2471 5.87791 55.2471 6.76685V34.3238C55.2471 35.2128 54.5212 35.9387 53.6322 35.9387H51.8544V32.783C51.8544 32.3237 51.484 31.9533 51.0247 31.9533H42.0761C41.6168 31.9533 41.2464 32.3237 41.2464 32.783V35.9387H27.8531L31.0088 35.0794C32.6386 34.635 34.0757 33.7016 35.1424 32.3978L40.5056 25.8789C40.6093 25.7456 40.6834 25.5826 40.6982 25.4197L41.1723 19.1971C41.2168 18.5897 40.8464 17.9822 40.2834 17.7452C40.5353 17.597 40.713 17.3304 40.713 17.0192C40.713 16.5599 40.3427 16.1896 39.8834 16.1896H36.2387C35.7795 16.1896 35.4091 16.5599 35.4091 17.0192C35.4091 17.4785 35.7795 17.8489 36.2387 17.8489H38.9648C38.8759 17.9082 38.787 17.9822 38.7129 18.0563L35.6609 21.1083C35.0683 21.701 34.5794 22.4417 34.0609 23.0936C33.7794 23.4492 33.8238 23.9826 34.1942 24.264C34.5498 24.5455 35.0831 24.5011 35.3646 24.1307L36.3276 22.9455L38.787 25.4048L33.9127 31.3459C33.0534 32.383 31.9274 33.1238 30.6236 33.4793L17.4674 37.2721C16.4451 37.5981 16.9637 39.1833 17.9711 38.8574L20.8602 37.924V44.9022H19.7046C19.2453 44.9022 18.8749 45.2725 18.8749 45.7318C18.8749 46.1911 19.2453 46.5615 19.7046 46.5615H24.8011C25.2604 46.5615 25.6308 46.1911 25.6308 45.7318C25.6308 45.2725 25.2604 44.9022 24.8011 44.9022H22.5343V37.6129H53.6619C55.4694 37.6129 56.9361 36.1461 56.9361 34.3386V6.78166C56.8917 4.95935 55.4249 3.49261 53.6174 3.49261ZM46.2244 2.08513H49.5876V3.47779H46.2244V2.08513ZM12.0005 2.08513H15.3636V3.47779H12.0005V2.08513ZM39.4685 19.612L39.1722 23.464L37.3944 21.6861L39.4685 19.612ZM42.8761 35.9387V33.6127H50.1654V35.9387H42.8761Z" fill="#00093C"/>
<path d="M15.6749 44.9024H4.97803V40.4726C4.97803 37.6576 5.62992 34.8575 6.85961 32.3388C7.54113 30.961 8.96342 30.072 10.5042 30.072H24.5494C27.4829 30.072 30.3423 29.0349 32.5943 27.1534C32.9498 26.8571 32.9943 26.3385 32.698 25.9829C32.4017 25.6274 31.8831 25.5829 31.5275 25.8792C29.5719 27.5089 27.0977 28.4127 24.5642 28.4127H18.5195C19.4529 27.4349 20.0307 26.1163 20.0307 24.6643V21.5975C22.1789 21.4494 23.8679 19.6715 23.8679 17.4936C23.8679 15.2268 22.0159 13.3749 19.7492 13.3749C18.3565 13.3452 17.0379 13.6712 16.0749 14.7231C15.6008 15.2416 14.9193 15.5379 14.223 15.5379H11.9265C10.0153 15.5379 8.4597 17.0936 8.4597 19.0048V25.257C8.4597 25.9681 8.62267 26.6644 9.05232 27.2423C9.24492 27.5089 9.48197 27.7312 9.74865 27.909C10.045 28.1016 10.4598 28.1756 10.6968 28.4127C8.4597 28.3682 6.34107 29.5979 5.36324 31.6128C4.01502 34.3685 3.30387 37.4206 3.30387 40.4874V44.9172H0.829673C0.37039 44.9172 0 45.2876 0 45.7469C0 46.2062 0.37039 46.5766 0.829673 46.5766H15.6749C16.1342 46.5766 16.5046 46.2062 16.5046 45.7469C16.5194 45.2728 16.1342 44.9024 15.6749 44.9024ZM14.3711 28.3831C13.9118 28.3534 13.4525 28.2349 13.0377 28.0423C13.2303 27.9386 13.4229 27.8201 13.5859 27.6867C14.2822 27.1089 14.6674 26.2644 14.6674 25.3014V21.5975H18.3565V24.6495C18.3565 26.7089 16.6823 28.3979 14.6082 28.3979C14.5193 28.3979 14.4452 28.3979 14.3711 28.3831ZM10.1339 25.2422V18.99C10.1339 17.9973 10.9487 17.1825 11.9414 17.1825H14.223C15.3934 17.1825 16.5046 16.6936 17.3046 15.8343C17.9565 15.1231 18.8454 14.9898 19.764 15.0194C21.1122 15.0194 22.2085 16.1158 22.2085 17.464C22.2085 18.8122 21.1122 19.9085 19.764 19.9085H13.8377C13.3785 19.9085 13.0081 20.2789 13.0081 20.7382V25.2866C13.0081 26.2644 12.1488 26.8719 11.2154 26.6941C10.4746 26.5756 10.1339 25.9681 10.1339 25.2422Z" fill="#00093C"/>
<path d="M28.5346 13.152H33.0682C33.5275 13.152 33.8979 12.7816 33.8979 12.3223V9.25545C33.8979 8.79617 33.5275 8.42578 33.0682 8.42578H28.5346C28.0753 8.42578 27.705 8.79617 27.705 9.25545V12.3223C27.6901 12.7816 28.0605 13.152 28.5346 13.152ZM29.3643 10.0851H32.2385V11.4778H29.3643V10.0851Z" fill="#00093C"/>
<path d="M27.6902 18.5313C27.6902 18.9905 28.0605 19.3609 28.5198 19.3609H33.0534C33.5127 19.3609 33.8831 18.9905 33.8831 18.5313V15.4644C33.8831 15.0052 33.5127 14.6348 33.0534 14.6348H28.5198C28.0605 14.6348 27.6902 15.0052 27.6902 15.4644V18.5313ZM29.3643 16.3089H32.2385V17.7016H29.3643V16.3089Z" fill="#00093C"/>
<path d="M36.2093 11.6125H50.9952C51.4545 11.6125 51.8249 11.2421 51.8249 10.7828C51.8249 10.3235 51.4545 9.95312 50.9952 9.95312H36.2093C35.75 9.95312 35.3796 10.3235 35.3796 10.7828C35.3796 11.2421 35.75 11.6125 36.2093 11.6125Z" fill="#00093C"/>
</svg>
