<svg width="50" height="51" viewBox="0 0 50 51" fill="none" xmlns="http://www.w3.org/2000/svg">
<path d="M28.4221 24.2904C28.5686 24.5834 28.8616 24.7421 29.1668 24.7421C29.2889 24.7421 29.4232 24.7177 29.5453 24.6567C29.5941 24.6323 34.502 22.1417 36.9194 21.3725C37.3589 21.2382 37.6031 20.7621 37.4566 20.3226C37.3223 19.883 36.8583 19.6389 36.4066 19.7732C33.855 20.5789 28.9837 23.0573 28.7761 23.155C28.3854 23.387 28.2145 23.8875 28.4221 24.2904Z" fill="#00093C"/>
<path d="M29.1668 14.7558C29.2889 14.7558 29.4232 14.7314 29.5453 14.6703C29.5941 14.6459 34.5021 12.1553 36.9194 11.3862C37.3589 11.2519 37.6031 10.7757 37.4566 10.3362C37.3223 9.89671 36.8584 9.65254 36.4066 9.78684C33.855 10.5926 28.9837 13.071 28.7762 13.1687C28.3611 13.3762 28.2023 13.8768 28.4099 14.2919C28.5808 14.5849 28.8738 14.7558 29.1668 14.7558Z" fill="#00093C"/>
<path d="M49.1769 13.083C48.713 13.083 48.3467 13.4615 48.3467 13.9132V46.4129C48.3467 47.7925 47.2235 48.9157 45.8439 48.9157H25.8338V46.9989C27.0546 46.5716 30.2167 45.5827 33.3299 45.5827C40.5942 45.5827 45.5143 47.1943 45.5631 47.2065C45.8195 47.292 46.0881 47.2431 46.3079 47.0966C46.5276 46.9379 46.6497 46.6937 46.6497 46.4251V9.75C46.6497 9.35932 46.3811 9.01747 46.0026 8.93201C46.0026 8.93201 45.3434 8.78551 44.2324 8.57796C43.7806 8.4925 43.3411 8.79771 43.2679 9.24944C43.1824 9.70116 43.4876 10.1407 43.9394 10.2261C44.3667 10.2994 44.7207 10.3726 45.0015 10.4337V45.3141C43.1092 44.8136 38.9216 43.9223 33.3299 43.9223C29.7039 43.9223 26.1268 45.1188 25.028 45.5217C24.0513 45.0822 21.0845 43.9223 17.4952 43.9223C11.757 43.9223 7.02004 44.8746 4.99338 45.3508V10.3971C6.65378 9.98196 11.5739 8.9198 17.4952 8.9198C20.5351 8.9198 23.1356 9.87209 24.1611 10.2994V43.0921C24.1611 43.3974 24.3199 43.666 24.5885 43.8125C24.8448 43.959 25.1745 43.959 25.4309 43.8003C25.5163 43.7514 33.7694 38.8191 41.0947 36.3773C41.4366 36.2674 41.6685 35.95 41.6685 35.5837V1.41141C41.6685 1.14282 41.5342 0.886433 41.3145 0.727719C41.0947 0.569005 40.8017 0.532378 40.5453 0.630048C33.8793 3.13285 27.1279 7.33266 27.0668 7.36929C26.6762 7.61346 26.5541 8.12623 26.7982 8.51691C27.0424 8.90759 27.5552 9.02968 27.9459 8.78551C28.0069 8.74888 33.8793 5.09846 40.0081 2.63229V34.9855C34.3188 36.9633 28.3732 40.1865 25.8338 41.6393V9.75C25.8338 9.43257 25.6506 9.15177 25.3698 9.00526C25.2233 8.93201 21.8049 7.2472 17.4952 7.2472C9.96235 7.2472 4.1754 8.87097 3.93122 8.94422C3.57717 9.04189 3.33299 9.37153 3.33299 9.75V46.4251C3.33299 46.6815 3.45508 46.9379 3.66263 47.0844C3.80914 47.1943 3.98006 47.2553 4.16319 47.2553C4.23644 47.2553 4.3219 47.2431 4.39516 47.2187C4.4562 47.2065 10.2187 45.5827 17.5074 45.5827C20.5596 45.5827 23.16 46.535 24.1734 46.9623V48.9157H4.16319C2.7836 48.9157 1.66039 47.7925 1.66039 46.4129V13.9132C1.66039 13.4493 1.28192 13.083 0.830197 13.083C0.366263 13.083 0 13.4615 0 13.9132V46.4129C0 48.7082 1.86794 50.5761 4.16319 50.5761H45.8317C48.127 50.5761 49.9949 48.7082 49.9949 46.4129V13.9132C50.0071 13.4615 49.6286 13.083 49.1769 13.083Z" fill="#00093C"/>
<path d="M28.4221 19.2963C28.5686 19.5893 28.8616 19.748 29.1668 19.748C29.2889 19.748 29.4232 19.7236 29.5453 19.6625C29.5941 19.6381 34.502 17.1475 36.9194 16.3784C37.3589 16.2441 37.6031 15.7679 37.4566 15.3284C37.3223 14.8889 36.8583 14.6447 36.4066 14.779C33.855 15.5848 28.9837 18.0632 28.7761 18.1609C28.3854 18.3806 28.2145 18.8812 28.4221 19.2963Z" fill="#00093C"/>
<path d="M28.4221 29.2963C28.5686 29.5893 28.8616 29.748 29.1668 29.748C29.2889 29.748 29.4232 29.7236 29.5453 29.6625C29.5941 29.6381 34.502 27.1475 36.9194 26.3784C37.3589 26.2441 37.6031 25.7679 37.4566 25.3284C37.3223 24.8889 36.8583 24.6447 36.4066 24.779C33.855 25.5848 28.9837 28.0632 28.7761 28.1609C28.3854 28.3806 28.2145 28.8812 28.4221 29.2963Z" fill="#00093C"/>
<path d="M20.1933 16.0498C15.0412 14.8411 9.19323 16.3795 8.94906 16.4405C8.50954 16.5626 8.24095 17.0143 8.36304 17.466C8.46071 17.8323 8.80256 18.0887 9.16882 18.0887C9.24207 18.0887 9.31532 18.0765 9.38858 18.0643C9.44962 18.0521 15.0779 16.5626 19.8149 17.6858C20.2666 17.7957 20.7061 17.5149 20.816 17.0631C20.9259 16.5992 20.6451 16.1475 20.1933 16.0498Z" fill="#00093C"/>
<path d="M20.1933 21.0437C15.0412 19.835 9.19323 21.3733 8.94906 21.4466C8.50954 21.5687 8.24095 22.0204 8.36304 22.4721C8.46071 22.8384 8.80256 23.0948 9.16882 23.0948C9.24207 23.0948 9.31532 23.0825 9.38858 23.0703C9.44962 23.0581 15.0779 21.5687 19.8149 22.6919C20.2666 22.8017 20.7061 22.5209 20.816 22.0692C20.9259 21.6053 20.6451 21.1536 20.1933 21.0437Z" fill="#00093C"/>
<path d="M28.4221 34.3021C28.5686 34.5951 28.8616 34.7539 29.1668 34.7539C29.2889 34.7539 29.4232 34.7294 29.5453 34.6684C29.5941 34.644 34.502 32.1534 36.9194 31.3842C37.3589 31.2499 37.6031 30.7738 37.4566 30.3343C37.3223 29.8948 36.8583 29.6506 36.4066 29.7849C33.855 30.5907 28.9837 33.069 28.7761 33.1667C28.3854 33.3865 28.2145 33.887 28.4221 34.3021Z" fill="#00093C"/>
<path d="M20.1933 26.0495C15.0412 24.8409 9.19323 26.3792 8.94906 26.4524C8.50954 26.5745 8.24095 27.0262 8.36304 27.478C8.46071 27.8564 8.80256 28.1006 9.16882 28.1006C9.24207 28.1006 9.31532 28.0884 9.38858 28.0762C9.44962 28.064 15.0779 26.5745 19.8149 27.6977C20.2666 27.8076 20.7061 27.5268 20.816 27.0751C20.9259 26.5989 20.6451 26.1594 20.1933 26.0495Z" fill="#00093C"/>
<path d="M20.1933 36.0479C15.0412 34.8392 9.19323 36.3775 8.94906 36.4385C8.50954 36.5606 8.24095 37.0124 8.36304 37.4641C8.46071 37.8426 8.80256 38.0867 9.16882 38.0867C9.24207 38.0867 9.31532 38.0745 9.38858 38.0623C9.44962 38.0501 15.0779 36.5606 19.8149 37.6838C20.2666 37.7815 20.7061 37.5129 20.816 37.0612C20.9259 36.6095 20.6451 36.1577 20.1933 36.0479Z" fill="#00093C"/>
<path d="M20.1933 31.0535C15.0412 29.8448 9.19323 31.3831 8.94906 31.4563C8.50954 31.5784 8.24095 32.0302 8.36304 32.4819C8.46071 32.8603 8.80256 33.1045 9.16882 33.1045C9.24207 33.1045 9.31532 33.0923 9.38858 33.0801C9.44962 33.0679 15.0779 31.5784 19.8149 32.7016C20.2666 32.8115 20.7061 32.5307 20.816 32.079C20.9259 31.6028 20.6451 31.1511 20.1933 31.0535Z" fill="#00093C"/>
</svg>
